<?xml version="1.0" encoding="UTF-8"?>
<svg version="1.1" xmlns="http://www.w3.org/2000/svg" width="48" height="48">
<path d="M0 0 C4.46376308 0.76660279 6.23653283 2.83578702 9.05078125 6.2421875 C15.30065866 15.08469943 20.3203562 24.16951432 19.5234375 35.28515625 C18.52671192 40.45474041 16.3605783 42.93210424 12.3125 46.109375 C6.51624711 49.41761368 0.46690546 49.05709032 -6 48 C-9.97333709 45.8021052 -12.95867619 43.08264763 -15 39 C-16.62100774 24.92670555 -12.3278639 15.23404408 -3.5625 4.125 C-2.3880499 2.73883688 -1.20565847 1.35910592 0 0 Z M1 5 C-9.27710009 18.11941506 -9.27710009 18.11941506 -12 34 C-9.83906103 31.83906103 -9.01910147 30.07491087 -7.75 27.3125 C-5.40257074 22.4845037 -2.65673854 18.91185983 1 15 C4.9531449 16.49766723 6.4302392 18.71131078 8.625 22.25 C9.21539063 23.18328125 9.80578125 24.1165625 10.4140625 25.078125 C11.99982275 27.99967344 13.05002707 30.82088266 14 34 C14.33 34 14.66 34 15 34 C16.26812056 24.94199603 11.39856665 16.72942129 6.234375 9.54296875 C4.52236235 7.44610324 4.52236235 7.44610324 2 5 C1.67 5 1.34 5 1 5 Z M1 20 C-4.36507517 25.93503697 -6.87144782 31.02976498 -7 39 C-4.20031546 37.60015773 -3.54274124 35.40324813 -2.1953125 32.69140625 C-0.73491848 30.62490098 0.6918778 29.9609128 3 29 C3.61488281 29.97453125 3.61488281 29.97453125 4.2421875 30.96875 C4.78101563 31.8040625 5.31984375 32.639375 5.875 33.5 C6.40867187 34.3353125 6.94234375 35.170625 7.4921875 36.03125 C7.98976563 36.6809375 8.48734375 37.330625 9 38 C9.66 38 10.32 38 11 38 C9.87444115 30.90897923 7.77058184 25.48357641 3 20 C2.34 20 1.68 20 1 20 Z M1 34 C-1.17364926 36.81769349 -2.08677021 38.2190681 -1.6875 41.8125 C-1.460625 42.534375 -1.23375 43.25625 -1 44 C0.83700789 44.77242269 0.83700789 44.77242269 3 45 C4.93654948 43.98029682 4.93654948 43.98029682 6 42 C5.73897585 38.51967799 4.96602468 36.94903702 3 34 C2.34 34 1.68 34 1 34 Z " fill="#515FAB" transform="translate(22,0)"/>
</svg>
